<svg width="64" height="64" viewBox="0 0 64 64" fill="none" xmlns="http://www.w3.org/2000/svg">
<path d="M32 26.6666H10.6667C7.72116 26.6666 5.33334 29.0544 5.33334 32V53.3333C5.33334 56.2788 7.72116 58.6666 10.6667 58.6666H32C34.9455 58.6666 37.3333 56.2788 37.3333 53.3333V32C37.3333 29.0544 34.9455 26.6666 32 26.6666Z" stroke="white" stroke-width="5.33333" stroke-linecap="round" stroke-linejoin="round"/>
<path d="M47.7867 37.3333L57.12 27.9999C58.1094 26.9026 58.657 25.4775 58.657 23.9999C58.657 22.5224 58.1094 21.0973 57.12 19.9999L43.7867 6.87993C42.6893 5.89051 41.2642 5.3429 39.7867 5.3429C38.3091 5.3429 36.884 5.89051 35.7867 6.87993L26.6667 15.9999" stroke="white" stroke-width="5.33333" stroke-linecap="round" stroke-linejoin="round"/>
<path d="M16 48H16.0267" stroke="white" stroke-width="5.33333" stroke-linecap="round" stroke-linejoin="round"/>
<path d="M26.6667 37.3334H26.6933" stroke="white" stroke-width="5.33333" stroke-linecap="round" stroke-linejoin="round"/>
<path d="M40 16H40.0267" stroke="white" stroke-width="5.33333" stroke-linecap="round" stroke-linejoin="round"/>
<path d="M48 24H48.0267" stroke="white" stroke-width="5.33333" stroke-linecap="round" stroke-linejoin="round"/>
</svg>
